<mxfile host="app.diagrams.net" agent="Mozilla/5.0 (Windows NT 10.0; Win64; x64) AppleWebKit/537.36 (KHTML, like Gecko) Chrome/131.0.0.0 Safari/537.36" version="25.0.3">
  <diagram name="第 1 页" id="bnDQp0RB2ErarTcb1Inx">
    <mxGraphModel dx="1707" dy="444" grid="1" gridSize="10" guides="1" tooltips="1" connect="1" arrows="1" fold="1" page="1" pageScale="1" pageWidth="827" pageHeight="1169" math="0" shadow="0">
      <root>
        <mxCell id="0" />
        <mxCell id="1" parent="0" />
        <mxCell id="6gzfc5hC1QTd9-dfOM9L-1" value="" style="endArrow=none;html=1;rounded=0;" edge="1" parent="1">
          <mxGeometry width="50" height="50" relative="1" as="geometry">
            <mxPoint x="440" y="1584" as="sourcePoint" />
            <mxPoint x="440" as="targetPoint" />
          </mxGeometry>
        </mxCell>
        <mxCell id="6gzfc5hC1QTd9-dfOM9L-2" value="七层协议(OSI)" style="whiteSpace=wrap;html=1;" vertex="1" parent="1">
          <mxGeometry x="-200" y="40" width="480" height="80" as="geometry" />
        </mxCell>
        <mxCell id="6gzfc5hC1QTd9-dfOM9L-3" value="四层协议&lt;div&gt;&lt;span style=&quot;color: rgb(5, 7, 59); font-family: -apple-system, BlinkMacSystemFont, &amp;quot;Segoe UI&amp;quot;, Roboto, Ubuntu, &amp;quot;Helvetica Neue&amp;quot;, Helvetica, Arial, &amp;quot;PingFang SC&amp;quot;, &amp;quot;Hiragino Sans GB&amp;quot;, &amp;quot;Microsoft YaHei UI&amp;quot;, &amp;quot;Microsoft YaHei&amp;quot;, &amp;quot;Source Han Sans CN&amp;quot;, sans-serif, &amp;quot;Apple Color Emoji&amp;quot;, &amp;quot;Segoe UI Emoji&amp;quot;; font-size: 15px; text-align: start; background-color: rgb(253, 253, 254);&quot;&gt;TCP/IP（Transmission Control Protocol/Internet Protocol，传输控制协议/互联网协议）&lt;/span&gt;&lt;/div&gt;" style="whiteSpace=wrap;html=1;" vertex="1" parent="1">
          <mxGeometry x="600" y="30" width="480" height="80" as="geometry" />
        </mxCell>
        <mxCell id="6gzfc5hC1QTd9-dfOM9L-4" value="应用层" style="rounded=1;whiteSpace=wrap;html=1;fillColor=#fff2cc;strokeColor=#d6b656;" vertex="1" parent="1">
          <mxGeometry x="600" y="400" width="120" height="80" as="geometry" />
        </mxCell>
        <mxCell id="6gzfc5hC1QTd9-dfOM9L-5" value="传输层" style="rounded=1;whiteSpace=wrap;html=1;fillColor=#fff2cc;strokeColor=#d6b656;" vertex="1" parent="1">
          <mxGeometry x="600" y="780" width="120" height="80" as="geometry" />
        </mxCell>
        <mxCell id="6gzfc5hC1QTd9-dfOM9L-43" value="" style="edgeStyle=orthogonalEdgeStyle;rounded=0;orthogonalLoop=1;jettySize=auto;html=1;" edge="1" parent="1" source="6gzfc5hC1QTd9-dfOM9L-7" target="6gzfc5hC1QTd9-dfOM9L-42">
          <mxGeometry relative="1" as="geometry" />
        </mxCell>
        <mxCell id="6gzfc5hC1QTd9-dfOM9L-7" value="网络传输层" style="rounded=1;whiteSpace=wrap;html=1;fillColor=#fff2cc;strokeColor=#d6b656;" vertex="1" parent="1">
          <mxGeometry x="600" y="1000" width="120" height="80" as="geometry" />
        </mxCell>
        <mxCell id="6gzfc5hC1QTd9-dfOM9L-24" style="edgeStyle=orthogonalEdgeStyle;rounded=0;orthogonalLoop=1;jettySize=auto;html=1;entryX=0;entryY=0.5;entryDx=0;entryDy=0;" edge="1" parent="1" source="6gzfc5hC1QTd9-dfOM9L-9" target="6gzfc5hC1QTd9-dfOM9L-23">
          <mxGeometry relative="1" as="geometry" />
        </mxCell>
        <mxCell id="6gzfc5hC1QTd9-dfOM9L-9" value="Http协议" style="shape=process;whiteSpace=wrap;html=1;backgroundOutline=1;fillColor=#dae8fc;strokeColor=#6c8ebf;" vertex="1" parent="1">
          <mxGeometry x="800" y="120" width="80" height="80" as="geometry" />
        </mxCell>
        <mxCell id="6gzfc5hC1QTd9-dfOM9L-30" value="" style="edgeStyle=orthogonalEdgeStyle;rounded=0;orthogonalLoop=1;jettySize=auto;html=1;" edge="1" parent="1" source="6gzfc5hC1QTd9-dfOM9L-10" target="6gzfc5hC1QTd9-dfOM9L-25">
          <mxGeometry relative="1" as="geometry" />
        </mxCell>
        <mxCell id="6gzfc5hC1QTd9-dfOM9L-10" value="Https协议" style="shape=process;whiteSpace=wrap;html=1;backgroundOutline=1;fillColor=#dae8fc;strokeColor=#6c8ebf;" vertex="1" parent="1">
          <mxGeometry x="800" y="240" width="80" height="80" as="geometry" />
        </mxCell>
        <mxCell id="6gzfc5hC1QTd9-dfOM9L-31" value="" style="edgeStyle=orthogonalEdgeStyle;rounded=0;orthogonalLoop=1;jettySize=auto;html=1;" edge="1" parent="1" source="6gzfc5hC1QTd9-dfOM9L-11" target="6gzfc5hC1QTd9-dfOM9L-27">
          <mxGeometry relative="1" as="geometry" />
        </mxCell>
        <mxCell id="6gzfc5hC1QTd9-dfOM9L-11" value="FTP协议" style="shape=process;whiteSpace=wrap;html=1;backgroundOutline=1;fillColor=#dae8fc;strokeColor=#6c8ebf;" vertex="1" parent="1">
          <mxGeometry x="800" y="360" width="80" height="80" as="geometry" />
        </mxCell>
        <mxCell id="6gzfc5hC1QTd9-dfOM9L-32" value="" style="edgeStyle=orthogonalEdgeStyle;rounded=0;orthogonalLoop=1;jettySize=auto;html=1;" edge="1" parent="1" source="6gzfc5hC1QTd9-dfOM9L-12" target="6gzfc5hC1QTd9-dfOM9L-28">
          <mxGeometry relative="1" as="geometry" />
        </mxCell>
        <mxCell id="6gzfc5hC1QTd9-dfOM9L-12" value="SMTP协议" style="shape=process;whiteSpace=wrap;html=1;backgroundOutline=1;fillColor=#dae8fc;strokeColor=#6c8ebf;" vertex="1" parent="1">
          <mxGeometry x="800" y="480" width="80" height="80" as="geometry" />
        </mxCell>
        <mxCell id="6gzfc5hC1QTd9-dfOM9L-33" value="" style="edgeStyle=orthogonalEdgeStyle;rounded=0;orthogonalLoop=1;jettySize=auto;html=1;" edge="1" parent="1" source="6gzfc5hC1QTd9-dfOM9L-13" target="6gzfc5hC1QTd9-dfOM9L-29">
          <mxGeometry relative="1" as="geometry" />
        </mxCell>
        <mxCell id="6gzfc5hC1QTd9-dfOM9L-13" value="DNS协议" style="shape=process;whiteSpace=wrap;html=1;backgroundOutline=1;fillColor=#dae8fc;strokeColor=#6c8ebf;" vertex="1" parent="1">
          <mxGeometry x="800" y="600" width="80" height="80" as="geometry" />
        </mxCell>
        <mxCell id="6gzfc5hC1QTd9-dfOM9L-16" value="" style="endArrow=classic;html=1;rounded=0;entryX=0;entryY=0.5;entryDx=0;entryDy=0;exitX=1;exitY=0;exitDx=0;exitDy=0;" edge="1" parent="1" source="6gzfc5hC1QTd9-dfOM9L-4" target="6gzfc5hC1QTd9-dfOM9L-9">
          <mxGeometry width="50" height="50" relative="1" as="geometry">
            <mxPoint x="690" y="360" as="sourcePoint" />
            <mxPoint x="740" y="310" as="targetPoint" />
          </mxGeometry>
        </mxCell>
        <mxCell id="6gzfc5hC1QTd9-dfOM9L-17" value="" style="endArrow=classic;html=1;rounded=0;entryX=0;entryY=0.5;entryDx=0;entryDy=0;exitX=1;exitY=0;exitDx=0;exitDy=0;" edge="1" parent="1" source="6gzfc5hC1QTd9-dfOM9L-4" target="6gzfc5hC1QTd9-dfOM9L-10">
          <mxGeometry width="50" height="50" relative="1" as="geometry">
            <mxPoint x="690" y="360" as="sourcePoint" />
            <mxPoint x="740" y="310" as="targetPoint" />
          </mxGeometry>
        </mxCell>
        <mxCell id="6gzfc5hC1QTd9-dfOM9L-20" value="" style="endArrow=classic;html=1;rounded=0;exitX=1;exitY=0.5;exitDx=0;exitDy=0;entryX=0;entryY=0.5;entryDx=0;entryDy=0;" edge="1" parent="1" source="6gzfc5hC1QTd9-dfOM9L-4" target="6gzfc5hC1QTd9-dfOM9L-11">
          <mxGeometry width="50" height="50" relative="1" as="geometry">
            <mxPoint x="690" y="360" as="sourcePoint" />
            <mxPoint x="740" y="310" as="targetPoint" />
          </mxGeometry>
        </mxCell>
        <mxCell id="6gzfc5hC1QTd9-dfOM9L-21" value="" style="endArrow=classic;html=1;rounded=0;entryX=0;entryY=0.625;entryDx=0;entryDy=0;entryPerimeter=0;exitX=1;exitY=1;exitDx=0;exitDy=0;" edge="1" parent="1" source="6gzfc5hC1QTd9-dfOM9L-4" target="6gzfc5hC1QTd9-dfOM9L-12">
          <mxGeometry width="50" height="50" relative="1" as="geometry">
            <mxPoint x="690" y="460" as="sourcePoint" />
            <mxPoint x="740" y="410" as="targetPoint" />
          </mxGeometry>
        </mxCell>
        <mxCell id="6gzfc5hC1QTd9-dfOM9L-22" value="" style="endArrow=classic;html=1;rounded=0;entryX=-0.037;entryY=0.6;entryDx=0;entryDy=0;entryPerimeter=0;" edge="1" parent="1" target="6gzfc5hC1QTd9-dfOM9L-13">
          <mxGeometry width="50" height="50" relative="1" as="geometry">
            <mxPoint x="720" y="440" as="sourcePoint" />
            <mxPoint x="740" y="410" as="targetPoint" />
          </mxGeometry>
        </mxCell>
        <mxCell id="6gzfc5hC1QTd9-dfOM9L-23" value="相对Https不安全" style="shape=document;whiteSpace=wrap;html=1;boundedLbl=1;" vertex="1" parent="1">
          <mxGeometry x="960" y="120" width="120" height="80" as="geometry" />
        </mxCell>
        <mxCell id="6gzfc5hC1QTd9-dfOM9L-25" value="相对Http更安全" style="shape=document;whiteSpace=wrap;html=1;boundedLbl=1;" vertex="1" parent="1">
          <mxGeometry x="960" y="240" width="120" height="80" as="geometry" />
        </mxCell>
        <mxCell id="6gzfc5hC1QTd9-dfOM9L-26" value="网络传输接口层" style="rounded=1;whiteSpace=wrap;html=1;fillColor=#fff2cc;strokeColor=#d6b656;" vertex="1" parent="1">
          <mxGeometry x="600" y="1220" width="120" height="80" as="geometry" />
        </mxCell>
        <mxCell id="6gzfc5hC1QTd9-dfOM9L-27" value="文件传输" style="shape=document;whiteSpace=wrap;html=1;boundedLbl=1;" vertex="1" parent="1">
          <mxGeometry x="960" y="360" width="120" height="80" as="geometry" />
        </mxCell>
        <mxCell id="6gzfc5hC1QTd9-dfOM9L-28" value="邮件发送" style="shape=document;whiteSpace=wrap;html=1;boundedLbl=1;" vertex="1" parent="1">
          <mxGeometry x="960" y="480" width="120" height="80" as="geometry" />
        </mxCell>
        <mxCell id="6gzfc5hC1QTd9-dfOM9L-29" value="域名解析" style="shape=document;whiteSpace=wrap;html=1;boundedLbl=1;" vertex="1" parent="1">
          <mxGeometry x="960" y="600" width="120" height="80" as="geometry" />
        </mxCell>
        <mxCell id="6gzfc5hC1QTd9-dfOM9L-40" value="" style="edgeStyle=orthogonalEdgeStyle;rounded=0;orthogonalLoop=1;jettySize=auto;html=1;" edge="1" parent="1" source="6gzfc5hC1QTd9-dfOM9L-34" target="6gzfc5hC1QTd9-dfOM9L-38">
          <mxGeometry relative="1" as="geometry" />
        </mxCell>
        <mxCell id="6gzfc5hC1QTd9-dfOM9L-34" value="TCP" style="shape=process;whiteSpace=wrap;html=1;backgroundOutline=1;fillColor=#dae8fc;strokeColor=#6c8ebf;" vertex="1" parent="1">
          <mxGeometry x="800" y="720" width="80" height="80" as="geometry" />
        </mxCell>
        <mxCell id="6gzfc5hC1QTd9-dfOM9L-41" value="" style="edgeStyle=orthogonalEdgeStyle;rounded=0;orthogonalLoop=1;jettySize=auto;html=1;" edge="1" parent="1" source="6gzfc5hC1QTd9-dfOM9L-35" target="6gzfc5hC1QTd9-dfOM9L-39">
          <mxGeometry relative="1" as="geometry" />
        </mxCell>
        <mxCell id="6gzfc5hC1QTd9-dfOM9L-35" value="UDP" style="shape=process;whiteSpace=wrap;html=1;backgroundOutline=1;fillColor=#dae8fc;strokeColor=#6c8ebf;" vertex="1" parent="1">
          <mxGeometry x="800" y="840" width="80" height="80" as="geometry" />
        </mxCell>
        <mxCell id="6gzfc5hC1QTd9-dfOM9L-36" value="" style="endArrow=classic;html=1;rounded=0;entryX=0;entryY=0.5;entryDx=0;entryDy=0;exitX=1;exitY=0.5;exitDx=0;exitDy=0;" edge="1" parent="1" source="6gzfc5hC1QTd9-dfOM9L-5" target="6gzfc5hC1QTd9-dfOM9L-34">
          <mxGeometry width="50" height="50" relative="1" as="geometry">
            <mxPoint x="720" y="800" as="sourcePoint" />
            <mxPoint x="740" y="760" as="targetPoint" />
          </mxGeometry>
        </mxCell>
        <mxCell id="6gzfc5hC1QTd9-dfOM9L-37" value="" style="endArrow=classic;html=1;rounded=0;entryX=0;entryY=0.5;entryDx=0;entryDy=0;exitX=1;exitY=0.5;exitDx=0;exitDy=0;" edge="1" parent="1" source="6gzfc5hC1QTd9-dfOM9L-5" target="6gzfc5hC1QTd9-dfOM9L-35">
          <mxGeometry width="50" height="50" relative="1" as="geometry">
            <mxPoint x="690" y="810" as="sourcePoint" />
            <mxPoint x="740" y="760" as="targetPoint" />
          </mxGeometry>
        </mxCell>
        <mxCell id="6gzfc5hC1QTd9-dfOM9L-38" value="相对UDP协议更安全" style="shape=document;whiteSpace=wrap;html=1;boundedLbl=1;" vertex="1" parent="1">
          <mxGeometry x="960" y="720" width="120" height="80" as="geometry" />
        </mxCell>
        <mxCell id="6gzfc5hC1QTd9-dfOM9L-39" value="相对TCP协议更加快" style="shape=document;whiteSpace=wrap;html=1;boundedLbl=1;" vertex="1" parent="1">
          <mxGeometry x="960" y="840" width="120" height="80" as="geometry" />
        </mxCell>
        <mxCell id="6gzfc5hC1QTd9-dfOM9L-53" value="" style="edgeStyle=orthogonalEdgeStyle;rounded=0;orthogonalLoop=1;jettySize=auto;html=1;" edge="1" parent="1" source="6gzfc5hC1QTd9-dfOM9L-42" target="6gzfc5hC1QTd9-dfOM9L-50">
          <mxGeometry relative="1" as="geometry" />
        </mxCell>
        <mxCell id="6gzfc5hC1QTd9-dfOM9L-42" value="IP" style="shape=process;whiteSpace=wrap;html=1;backgroundOutline=1;fillColor=#dae8fc;strokeColor=#6c8ebf;" vertex="1" parent="1">
          <mxGeometry x="800" y="1000" width="80" height="80" as="geometry" />
        </mxCell>
        <mxCell id="6gzfc5hC1QTd9-dfOM9L-45" value="" style="edgeStyle=orthogonalEdgeStyle;rounded=0;orthogonalLoop=1;jettySize=auto;html=1;" edge="1" parent="1" source="6gzfc5hC1QTd9-dfOM9L-44" target="6gzfc5hC1QTd9-dfOM9L-7">
          <mxGeometry relative="1" as="geometry" />
        </mxCell>
        <mxCell id="6gzfc5hC1QTd9-dfOM9L-44" value="&lt;span style=&quot;color: rgb(5, 7, 59); font-family: -apple-system, BlinkMacSystemFont, &amp;quot;Segoe UI&amp;quot;, Roboto, Ubuntu, &amp;quot;Helvetica Neue&amp;quot;, Helvetica, Arial, &amp;quot;PingFang SC&amp;quot;, &amp;quot;Hiragino Sans GB&amp;quot;, &amp;quot;Microsoft YaHei UI&amp;quot;, &amp;quot;Microsoft YaHei&amp;quot;, &amp;quot;Source Han Sans CN&amp;quot;, sans-serif, &amp;quot;Apple Color Emoji&amp;quot;, &amp;quot;Segoe UI Emoji&amp;quot;; text-align: left; background-color: rgb(253, 253, 254);&quot;&gt;&lt;font style=&quot;font-size: 13px;&quot;&gt;负责将数据包从源网络发送到目标网络&lt;/font&gt;&lt;/span&gt;" style="shape=document;whiteSpace=wrap;html=1;boundedLbl=1;" vertex="1" parent="1">
          <mxGeometry x="600" y="880" width="120" height="80" as="geometry" />
        </mxCell>
        <mxCell id="6gzfc5hC1QTd9-dfOM9L-47" value="" style="edgeStyle=orthogonalEdgeStyle;rounded=0;orthogonalLoop=1;jettySize=auto;html=1;" edge="1" parent="1" source="6gzfc5hC1QTd9-dfOM9L-46" target="6gzfc5hC1QTd9-dfOM9L-5">
          <mxGeometry relative="1" as="geometry" />
        </mxCell>
        <mxCell id="6gzfc5hC1QTd9-dfOM9L-46" value="&lt;span style=&quot;color: rgb(5, 7, 59); font-family: -apple-system, BlinkMacSystemFont, &amp;quot;Segoe UI&amp;quot;, Roboto, Ubuntu, &amp;quot;Helvetica Neue&amp;quot;, Helvetica, Arial, &amp;quot;PingFang SC&amp;quot;, &amp;quot;Hiragino Sans GB&amp;quot;, &amp;quot;Microsoft YaHei UI&amp;quot;, &amp;quot;Microsoft YaHei&amp;quot;, &amp;quot;Source Han Sans CN&amp;quot;, sans-serif, &amp;quot;Apple Color Emoji&amp;quot;, &amp;quot;Segoe UI Emoji&amp;quot;; text-align: left; background-color: rgb(253, 253, 254);&quot;&gt;&lt;font style=&quot;font-size: 13px;&quot;&gt;负责在源主机和目标主机的应用程序之间提供端到端的通信&lt;/font&gt;&lt;/span&gt;" style="shape=document;whiteSpace=wrap;html=1;boundedLbl=1;" vertex="1" parent="1">
          <mxGeometry x="600" y="640" width="120" height="80" as="geometry" />
        </mxCell>
        <mxCell id="6gzfc5hC1QTd9-dfOM9L-49" value="" style="edgeStyle=orthogonalEdgeStyle;rounded=0;orthogonalLoop=1;jettySize=auto;html=1;" edge="1" parent="1" source="6gzfc5hC1QTd9-dfOM9L-48" target="6gzfc5hC1QTd9-dfOM9L-4">
          <mxGeometry relative="1" as="geometry" />
        </mxCell>
        <mxCell id="6gzfc5hC1QTd9-dfOM9L-48" value="&lt;span style=&quot;color: rgb(5, 7, 59); font-family: -apple-system, BlinkMacSystemFont, &amp;quot;Segoe UI&amp;quot;, Roboto, Ubuntu, &amp;quot;Helvetica Neue&amp;quot;, Helvetica, Arial, &amp;quot;PingFang SC&amp;quot;, &amp;quot;Hiragino Sans GB&amp;quot;, &amp;quot;Microsoft YaHei UI&amp;quot;, &amp;quot;Microsoft YaHei&amp;quot;, &amp;quot;Source Han Sans CN&amp;quot;, sans-serif, &amp;quot;Apple Color Emoji&amp;quot;, &amp;quot;Segoe UI Emoji&amp;quot;; text-align: left; background-color: rgb(253, 253, 254);&quot;&gt;&lt;font style=&quot;font-size: 13px;&quot;&gt;这是最接近用户的层次，为应用程序提供网络服务&lt;/font&gt;&lt;/span&gt;" style="shape=document;whiteSpace=wrap;html=1;boundedLbl=1;" vertex="1" parent="1">
          <mxGeometry x="600" y="240" width="120" height="80" as="geometry" />
        </mxCell>
        <mxCell id="6gzfc5hC1QTd9-dfOM9L-50" value="&lt;span style=&quot;color: rgb(5, 7, 59); font-family: -apple-system, BlinkMacSystemFont, &amp;quot;Segoe UI&amp;quot;, Roboto, Ubuntu, &amp;quot;Helvetica Neue&amp;quot;, Helvetica, Arial, &amp;quot;PingFang SC&amp;quot;, &amp;quot;Hiragino Sans GB&amp;quot;, &amp;quot;Microsoft YaHei UI&amp;quot;, &amp;quot;Microsoft YaHei&amp;quot;, &amp;quot;Source Han Sans CN&amp;quot;, sans-serif, &amp;quot;Apple Color Emoji&amp;quot;, &amp;quot;Segoe UI Emoji&amp;quot;; text-align: left; background-color: rgb(253, 253, 254);&quot;&gt;&lt;font style=&quot;font-size: 13px;&quot;&gt;地址寻址和路由选择&lt;/font&gt;&lt;/span&gt;" style="shape=document;whiteSpace=wrap;html=1;boundedLbl=1;" vertex="1" parent="1">
          <mxGeometry x="960" y="1000" width="120" height="80" as="geometry" />
        </mxCell>
        <mxCell id="6gzfc5hC1QTd9-dfOM9L-60" value="" style="edgeStyle=orthogonalEdgeStyle;rounded=0;orthogonalLoop=1;jettySize=auto;html=1;" edge="1" parent="1" source="6gzfc5hC1QTd9-dfOM9L-51" target="6gzfc5hC1QTd9-dfOM9L-58">
          <mxGeometry relative="1" as="geometry" />
        </mxCell>
        <mxCell id="6gzfc5hC1QTd9-dfOM9L-51" value="&lt;span style=&quot;font-family: -apple-system, BlinkMacSystemFont, &amp;quot;Segoe UI&amp;quot;, Roboto, Ubuntu, &amp;quot;Helvetica Neue&amp;quot;, Helvetica, Arial, &amp;quot;PingFang SC&amp;quot;, &amp;quot;Hiragino Sans GB&amp;quot;, &amp;quot;Microsoft YaHei UI&amp;quot;, &amp;quot;Microsoft YaHei&amp;quot;, &amp;quot;Source Han Sans CN&amp;quot;, sans-serif, &amp;quot;Apple Color Emoji&amp;quot;, &amp;quot;Segoe UI Emoji&amp;quot;; font-size: 15px; text-align: left; background-color: rgb(253, 253, 254);&quot;&gt;以太网&lt;/span&gt;&lt;span style=&quot;font-family: -apple-system, BlinkMacSystemFont, &amp;quot;Segoe UI&amp;quot;, Roboto, Ubuntu, &amp;quot;Helvetica Neue&amp;quot;, Helvetica, Arial, &amp;quot;PingFang SC&amp;quot;, &amp;quot;Hiragino Sans GB&amp;quot;, &amp;quot;Microsoft YaHei UI&amp;quot;, &amp;quot;Microsoft YaHei&amp;quot;, &amp;quot;Source Han Sans CN&amp;quot;, sans-serif, &amp;quot;Apple Color Emoji&amp;quot;, &amp;quot;Segoe UI Emoji&amp;quot;; font-size: 15px; text-align: left; background-color: rgb(253, 253, 254);&quot;&gt;的&lt;/span&gt;&lt;span style=&quot;font-family: -apple-system, BlinkMacSystemFont, &amp;quot;Segoe UI&amp;quot;, Roboto, Ubuntu, &amp;quot;Helvetica Neue&amp;quot;, Helvetica, Arial, &amp;quot;PingFang SC&amp;quot;, &amp;quot;Hiragino Sans GB&amp;quot;, &amp;quot;Microsoft YaHei UI&amp;quot;, &amp;quot;Microsoft YaHei&amp;quot;, &amp;quot;Source Han Sans CN&amp;quot;, sans-serif, &amp;quot;Apple Color Emoji&amp;quot;, &amp;quot;Segoe UI Emoji&amp;quot;; font-size: 15px; text-align: left; background-color: rgb(253, 253, 254);&quot;&gt;IEEE802.3标准&lt;/span&gt;" style="shape=process;whiteSpace=wrap;html=1;backgroundOutline=1;fillColor=#dae8fc;strokeColor=#6c8ebf;" vertex="1" parent="1">
          <mxGeometry x="800" y="1160" width="80" height="80" as="geometry" />
        </mxCell>
        <mxCell id="6gzfc5hC1QTd9-dfOM9L-61" value="" style="edgeStyle=orthogonalEdgeStyle;rounded=0;orthogonalLoop=1;jettySize=auto;html=1;" edge="1" parent="1" source="6gzfc5hC1QTd9-dfOM9L-52" target="6gzfc5hC1QTd9-dfOM9L-59">
          <mxGeometry relative="1" as="geometry" />
        </mxCell>
        <mxCell id="6gzfc5hC1QTd9-dfOM9L-52" value="&lt;span style=&quot;color: rgb(5, 7, 59); font-family: -apple-system, BlinkMacSystemFont, &amp;quot;Segoe UI&amp;quot;, Roboto, Ubuntu, &amp;quot;Helvetica Neue&amp;quot;, Helvetica, Arial, &amp;quot;PingFang SC&amp;quot;, &amp;quot;Hiragino Sans GB&amp;quot;, &amp;quot;Microsoft YaHei UI&amp;quot;, &amp;quot;Microsoft YaHei&amp;quot;, &amp;quot;Source Han Sans CN&amp;quot;, sans-serif, &amp;quot;Apple Color Emoji&amp;quot;, &amp;quot;Segoe UI Emoji&amp;quot;; font-size: 15px; text-align: left; background-color: rgb(253, 253, 254);&quot;&gt;Wi-Fi的802.11标准&lt;/span&gt;" style="shape=process;whiteSpace=wrap;html=1;backgroundOutline=1;fillColor=#dae8fc;strokeColor=#6c8ebf;" vertex="1" parent="1">
          <mxGeometry x="800" y="1280" width="80" height="80" as="geometry" />
        </mxCell>
        <mxCell id="6gzfc5hC1QTd9-dfOM9L-54" value="" style="endArrow=classic;html=1;rounded=0;entryX=0;entryY=0.5;entryDx=0;entryDy=0;exitX=1;exitY=0.5;exitDx=0;exitDy=0;" edge="1" parent="1" source="6gzfc5hC1QTd9-dfOM9L-26" target="6gzfc5hC1QTd9-dfOM9L-51">
          <mxGeometry width="50" height="50" relative="1" as="geometry">
            <mxPoint x="690" y="1300" as="sourcePoint" />
            <mxPoint x="740" y="1250" as="targetPoint" />
          </mxGeometry>
        </mxCell>
        <mxCell id="6gzfc5hC1QTd9-dfOM9L-55" value="" style="endArrow=classic;html=1;rounded=0;entryX=0;entryY=0.638;entryDx=0;entryDy=0;entryPerimeter=0;exitX=1;exitY=0.5;exitDx=0;exitDy=0;" edge="1" parent="1" source="6gzfc5hC1QTd9-dfOM9L-26" target="6gzfc5hC1QTd9-dfOM9L-52">
          <mxGeometry width="50" height="50" relative="1" as="geometry">
            <mxPoint x="690" y="1300" as="sourcePoint" />
            <mxPoint x="740" y="1250" as="targetPoint" />
          </mxGeometry>
        </mxCell>
        <mxCell id="6gzfc5hC1QTd9-dfOM9L-57" value="" style="edgeStyle=orthogonalEdgeStyle;rounded=0;orthogonalLoop=1;jettySize=auto;html=1;" edge="1" parent="1" source="6gzfc5hC1QTd9-dfOM9L-56" target="6gzfc5hC1QTd9-dfOM9L-26">
          <mxGeometry relative="1" as="geometry" />
        </mxCell>
        <mxCell id="6gzfc5hC1QTd9-dfOM9L-56" value="&lt;span style=&quot;color: rgb(5, 7, 59); font-family: -apple-system, BlinkMacSystemFont, &amp;quot;Segoe UI&amp;quot;, Roboto, Ubuntu, &amp;quot;Helvetica Neue&amp;quot;, Helvetica, Arial, &amp;quot;PingFang SC&amp;quot;, &amp;quot;Hiragino Sans GB&amp;quot;, &amp;quot;Microsoft YaHei UI&amp;quot;, &amp;quot;Microsoft YaHei&amp;quot;, &amp;quot;Source Han Sans CN&amp;quot;, sans-serif, &amp;quot;Apple Color Emoji&amp;quot;, &amp;quot;Segoe UI Emoji&amp;quot;; text-align: left; background-color: rgb(253, 253, 254);&quot;&gt;&lt;font style=&quot;font-size: 13px;&quot;&gt;处理数据在物理链路上的传输细节，包括定义了MAC地址和网络拓扑结构&lt;/font&gt;&lt;/span&gt;" style="shape=document;whiteSpace=wrap;html=1;boundedLbl=1;" vertex="1" parent="1">
          <mxGeometry x="600" y="1089" width="120" height="80" as="geometry" />
        </mxCell>
        <mxCell id="6gzfc5hC1QTd9-dfOM9L-58" value="&lt;span style=&quot;color: rgb(5, 7, 59); font-family: -apple-system, BlinkMacSystemFont, &amp;quot;Segoe UI&amp;quot;, Roboto, Ubuntu, &amp;quot;Helvetica Neue&amp;quot;, Helvetica, Arial, &amp;quot;PingFang SC&amp;quot;, &amp;quot;Hiragino Sans GB&amp;quot;, &amp;quot;Microsoft YaHei UI&amp;quot;, &amp;quot;Microsoft YaHei&amp;quot;, &amp;quot;Source Han Sans CN&amp;quot;, sans-serif, &amp;quot;Apple Color Emoji&amp;quot;, &amp;quot;Segoe UI Emoji&amp;quot;; text-align: left; background-color: rgb(253, 253, 254);&quot;&gt;&lt;font style=&quot;font-size: 13px;&quot;&gt;地址寻址和路由选择&lt;/font&gt;&lt;/span&gt;" style="shape=document;whiteSpace=wrap;html=1;boundedLbl=1;" vertex="1" parent="1">
          <mxGeometry x="960" y="1160" width="120" height="80" as="geometry" />
        </mxCell>
        <mxCell id="6gzfc5hC1QTd9-dfOM9L-59" value="&lt;span style=&quot;color: rgb(5, 7, 59); font-family: -apple-system, BlinkMacSystemFont, &amp;quot;Segoe UI&amp;quot;, Roboto, Ubuntu, &amp;quot;Helvetica Neue&amp;quot;, Helvetica, Arial, &amp;quot;PingFang SC&amp;quot;, &amp;quot;Hiragino Sans GB&amp;quot;, &amp;quot;Microsoft YaHei UI&amp;quot;, &amp;quot;Microsoft YaHei&amp;quot;, &amp;quot;Source Han Sans CN&amp;quot;, sans-serif, &amp;quot;Apple Color Emoji&amp;quot;, &amp;quot;Segoe UI Emoji&amp;quot;; text-align: left; background-color: rgb(253, 253, 254);&quot;&gt;&lt;font style=&quot;font-size: 13px;&quot;&gt;地址寻址和路由选择&lt;/font&gt;&lt;/span&gt;" style="shape=document;whiteSpace=wrap;html=1;boundedLbl=1;" vertex="1" parent="1">
          <mxGeometry x="960" y="1280" width="120" height="80" as="geometry" />
        </mxCell>
        <mxCell id="6gzfc5hC1QTd9-dfOM9L-62" value="&lt;font style=&quot;font-size: 15px;&quot;&gt;物理层&lt;/font&gt;" style="rounded=1;whiteSpace=wrap;html=1;fillColor=#fff2cc;strokeColor=#d6b656;" vertex="1" parent="1">
          <mxGeometry x="-200" y="240" width="120" height="80" as="geometry" />
        </mxCell>
        <mxCell id="6gzfc5hC1QTd9-dfOM9L-76" value="" style="edgeStyle=orthogonalEdgeStyle;rounded=0;orthogonalLoop=1;jettySize=auto;html=1;" edge="1" parent="1" source="6gzfc5hC1QTd9-dfOM9L-63" target="6gzfc5hC1QTd9-dfOM9L-75">
          <mxGeometry relative="1" as="geometry" />
        </mxCell>
        <mxCell id="6gzfc5hC1QTd9-dfOM9L-63" value="&lt;span style=&quot;box-sizing: border-box; padding: 0px; -webkit-font-smoothing: antialiased; list-style: none; margin: 0px; scrollbar-width: none; color: rgb(5, 7, 59); font-size: 15px; text-align: left; background-color: rgb(255, 244, 195);&quot;&gt;&lt;font style=&quot;&quot; face=&quot;Helvetica&quot;&gt;数据链路层&lt;/font&gt;&lt;/span&gt;" style="rounded=1;whiteSpace=wrap;html=1;fillColor=#fff2cc;strokeColor=#FFB570;" vertex="1" parent="1">
          <mxGeometry x="-200" y="560" width="120" height="80" as="geometry" />
        </mxCell>
        <mxCell id="6gzfc5hC1QTd9-dfOM9L-84" value="" style="edgeStyle=orthogonalEdgeStyle;rounded=0;orthogonalLoop=1;jettySize=auto;html=1;" edge="1" parent="1" source="6gzfc5hC1QTd9-dfOM9L-64" target="6gzfc5hC1QTd9-dfOM9L-83">
          <mxGeometry relative="1" as="geometry" />
        </mxCell>
        <mxCell id="6gzfc5hC1QTd9-dfOM9L-64" value="&lt;span style=&quot;box-sizing: border-box; padding: 0px; -webkit-font-smoothing: antialiased; list-style: none; margin: 0px; scrollbar-width: none; color: rgb(5, 7, 59); font-size: 15px; text-align: left; background-color: rgb(255, 244, 195);&quot;&gt;&lt;font style=&quot;&quot; face=&quot;Helvetica&quot;&gt;网络层&lt;/font&gt;&lt;/span&gt;" style="rounded=1;whiteSpace=wrap;html=1;fillColor=#fff2cc;strokeColor=#d6b656;" vertex="1" parent="1">
          <mxGeometry x="-200" y="840" width="120" height="80" as="geometry" />
        </mxCell>
        <mxCell id="6gzfc5hC1QTd9-dfOM9L-65" value="&lt;span style=&quot;box-sizing: border-box; padding: 0px; -webkit-font-smoothing: antialiased; list-style: none; margin: 0px; scrollbar-width: none; color: rgb(5, 7, 59); font-size: 15px; text-align: left; background-color: rgb(255, 244, 195);&quot;&gt;传输层&lt;/span&gt;" style="rounded=1;whiteSpace=wrap;html=1;fillColor=#fff2cc;strokeColor=#d6b656;" vertex="1" parent="1">
          <mxGeometry x="-200" y="1080" width="120" height="80" as="geometry" />
        </mxCell>
        <mxCell id="6gzfc5hC1QTd9-dfOM9L-91" value="" style="edgeStyle=orthogonalEdgeStyle;rounded=0;orthogonalLoop=1;jettySize=auto;html=1;" edge="1" parent="1" source="6gzfc5hC1QTd9-dfOM9L-66" target="6gzfc5hC1QTd9-dfOM9L-88">
          <mxGeometry relative="1" as="geometry" />
        </mxCell>
        <mxCell id="6gzfc5hC1QTd9-dfOM9L-66" value="&lt;span style=&quot;box-sizing: border-box; padding: 0px; -webkit-font-smoothing: antialiased; list-style: none; margin: 0px; scrollbar-width: none; color: rgb(5, 7, 59); font-size: 15px; text-align: left; background-color: rgb(255, 244, 195);&quot;&gt;&lt;font style=&quot;&quot; face=&quot;Helvetica&quot;&gt;会话层&lt;/font&gt;&lt;/span&gt;" style="rounded=1;whiteSpace=wrap;html=1;fillColor=#fff2cc;strokeColor=#d6b656;" vertex="1" parent="1">
          <mxGeometry x="-200" y="1320" width="120" height="80" as="geometry" />
        </mxCell>
        <mxCell id="6gzfc5hC1QTd9-dfOM9L-121" value="" style="edgeStyle=orthogonalEdgeStyle;rounded=0;orthogonalLoop=1;jettySize=auto;html=1;" edge="1" parent="1" source="6gzfc5hC1QTd9-dfOM9L-67" target="6gzfc5hC1QTd9-dfOM9L-92">
          <mxGeometry relative="1" as="geometry" />
        </mxCell>
        <mxCell id="6gzfc5hC1QTd9-dfOM9L-67" value="&lt;font style=&quot;font-size: 15px;&quot;&gt;表示层&lt;/font&gt;" style="rounded=1;whiteSpace=wrap;html=1;fillColor=#fff2cc;strokeColor=#d6b656;" vertex="1" parent="1">
          <mxGeometry x="-200" y="1600" width="120" height="80" as="geometry" />
        </mxCell>
        <mxCell id="6gzfc5hC1QTd9-dfOM9L-69" value="&lt;font&gt;&lt;span style=&quot;color: rgb(5, 7, 59); font-family: -apple-system, BlinkMacSystemFont, &amp;quot;Segoe UI&amp;quot;, Roboto, Ubuntu, &amp;quot;Helvetica Neue&amp;quot;, Helvetica, Arial, &amp;quot;PingFang SC&amp;quot;, &amp;quot;Hiragino Sans GB&amp;quot;, &amp;quot;Microsoft YaHei UI&amp;quot;, &amp;quot;Microsoft YaHei&amp;quot;, &amp;quot;Source Han Sans CN&amp;quot;, sans-serif, &amp;quot;Apple Color Emoji&amp;quot;, &amp;quot;Segoe UI Emoji&amp;quot;; text-align: left; background-color: rgb(253, 253, 254);&quot;&gt;Ethernet（以太网，如IEEE 802.3&lt;/span&gt;&lt;span style=&quot;color: rgb(5, 7, 59); font-family: -apple-system, BlinkMacSystemFont, &amp;quot;Segoe UI&amp;quot;, Roboto, Ubuntu, &amp;quot;Helvetica Neue&amp;quot;, Helvetica, Arial, &amp;quot;PingFang SC&amp;quot;, &amp;quot;Hiragino Sans GB&amp;quot;, &amp;quot;Microsoft YaHei UI&amp;quot;, &amp;quot;Microsoft YaHei&amp;quot;, &amp;quot;Source Han Sans CN&amp;quot;, sans-serif, &amp;quot;Apple Color Emoji&amp;quot;, &amp;quot;Segoe UI Emoji&amp;quot;; text-align: left; background-color: rgb(253, 253, 254);&quot;&gt;）&lt;/span&gt;&lt;/font&gt;" style="shape=process;whiteSpace=wrap;html=1;backgroundOutline=1;fillColor=#dae8fc;strokeColor=#6c8ebf;" vertex="1" parent="1">
          <mxGeometry y="160" width="80" height="80" as="geometry" />
        </mxCell>
        <mxCell id="6gzfc5hC1QTd9-dfOM9L-70" value="&lt;span style=&quot;color: rgb(5, 7, 59); font-family: -apple-system, BlinkMacSystemFont, &amp;quot;Segoe UI&amp;quot;, Roboto, Ubuntu, &amp;quot;Helvetica Neue&amp;quot;, Helvetica, Arial, &amp;quot;PingFang SC&amp;quot;, &amp;quot;Hiragino Sans GB&amp;quot;, &amp;quot;Microsoft YaHei UI&amp;quot;, &amp;quot;Microsoft YaHei&amp;quot;, &amp;quot;Source Han Sans CN&amp;quot;, sans-serif, &amp;quot;Apple Color Emoji&amp;quot;, &amp;quot;Segoe UI Emoji&amp;quot;; text-align: left; background-color: rgb(253, 253, 254);&quot;&gt;&lt;font&gt;RS-232串口通信协议&lt;/font&gt;&lt;/span&gt;" style="shape=process;whiteSpace=wrap;html=1;backgroundOutline=1;fillColor=#dae8fc;strokeColor=#6c8ebf;" vertex="1" parent="1">
          <mxGeometry y="320" width="80" height="80" as="geometry" />
        </mxCell>
        <mxCell id="6gzfc5hC1QTd9-dfOM9L-71" value="" style="endArrow=classic;html=1;rounded=0;exitX=1;exitY=0.5;exitDx=0;exitDy=0;" edge="1" parent="1" source="6gzfc5hC1QTd9-dfOM9L-62">
          <mxGeometry width="50" height="50" relative="1" as="geometry">
            <mxPoint x="-50" y="390" as="sourcePoint" />
            <mxPoint y="340" as="targetPoint" />
          </mxGeometry>
        </mxCell>
        <mxCell id="6gzfc5hC1QTd9-dfOM9L-72" value="" style="endArrow=classic;html=1;rounded=0;entryX=0;entryY=0.5;entryDx=0;entryDy=0;" edge="1" parent="1" target="6gzfc5hC1QTd9-dfOM9L-69">
          <mxGeometry width="50" height="50" relative="1" as="geometry">
            <mxPoint x="-80" y="280" as="sourcePoint" />
            <mxPoint y="340" as="targetPoint" />
          </mxGeometry>
        </mxCell>
        <mxCell id="6gzfc5hC1QTd9-dfOM9L-74" value="" style="edgeStyle=orthogonalEdgeStyle;rounded=0;orthogonalLoop=1;jettySize=auto;html=1;" edge="1" parent="1" source="6gzfc5hC1QTd9-dfOM9L-73" target="6gzfc5hC1QTd9-dfOM9L-62">
          <mxGeometry relative="1" as="geometry" />
        </mxCell>
        <mxCell id="6gzfc5hC1QTd9-dfOM9L-73" value="&lt;span style=&quot;color: rgb(5, 7, 59); font-family: -apple-system, BlinkMacSystemFont, &amp;quot;Segoe UI&amp;quot;, Roboto, Ubuntu, &amp;quot;Helvetica Neue&amp;quot;, Helvetica, Arial, &amp;quot;PingFang SC&amp;quot;, &amp;quot;Hiragino Sans GB&amp;quot;, &amp;quot;Microsoft YaHei UI&amp;quot;, &amp;quot;Microsoft YaHei&amp;quot;, &amp;quot;Source Han Sans CN&amp;quot;, sans-serif, &amp;quot;Apple Color Emoji&amp;quot;, &amp;quot;Segoe UI Emoji&amp;quot;; text-align: left; background-color: rgb(253, 253, 254);&quot;&gt;&lt;font&gt;主要负责传输比特流，即实际的数据信号传输和物理连接的建立&lt;/font&gt;&lt;/span&gt;" style="shape=document;whiteSpace=wrap;html=1;boundedLbl=1;" vertex="1" parent="1">
          <mxGeometry x="-200" y="120" width="120" height="80" as="geometry" />
        </mxCell>
        <mxCell id="6gzfc5hC1QTd9-dfOM9L-75" value="&lt;span style=&quot;color: rgb(5, 7, 59); font-family: -apple-system, BlinkMacSystemFont, &amp;quot;Segoe UI&amp;quot;, Roboto, Ubuntu, &amp;quot;Helvetica Neue&amp;quot;, Helvetica, Arial, &amp;quot;PingFang SC&amp;quot;, &amp;quot;Hiragino Sans GB&amp;quot;, &amp;quot;Microsoft YaHei UI&amp;quot;, &amp;quot;Microsoft YaHei&amp;quot;, &amp;quot;Source Han Sans CN&amp;quot;, sans-serif, &amp;quot;Apple Color Emoji&amp;quot;, &amp;quot;Segoe UI Emoji&amp;quot;; text-align: left; background-color: rgb(253, 253, 254);&quot;&gt;&lt;font style=&quot;font-size: 13px;&quot;&gt;RARP（反向地址解析协议）&lt;/font&gt;&lt;/span&gt;" style="shape=process;whiteSpace=wrap;html=1;backgroundOutline=1;fillColor=#dae8fc;strokeColor=#6c8ebf;" vertex="1" parent="1">
          <mxGeometry y="560" width="80" height="80" as="geometry" />
        </mxCell>
        <mxCell id="6gzfc5hC1QTd9-dfOM9L-77" value="&lt;font style=&quot;font-size: 13px;&quot;&gt;&lt;span style=&quot;color: rgb(5, 7, 59); font-family: -apple-system, BlinkMacSystemFont, &amp;quot;Segoe UI&amp;quot;, Roboto, Ubuntu, &amp;quot;Helvetica Neue&amp;quot;, Helvetica, Arial, &amp;quot;PingFang SC&amp;quot;, &amp;quot;Hiragino Sans GB&amp;quot;, &amp;quot;Microsoft YaHei UI&amp;quot;, &amp;quot;Microsoft YaHei&amp;quot;, &amp;quot;Source Han Sans CN&amp;quot;, sans-serif, &amp;quot;Apple Color Emoji&amp;quot;, &amp;quot;Segoe UI Emoji&amp;quot;; text-align: left; background-color: rgb(253, 253, 254);&quot;&gt;&lt;font style=&quot;&quot;&gt;R&lt;/font&gt;&lt;/span&gt;&lt;span style=&quot;color: rgb(5, 7, 59); font-family: -apple-system, BlinkMacSystemFont, &amp;quot;Segoe UI&amp;quot;, Roboto, Ubuntu, &amp;quot;Helvetica Neue&amp;quot;, Helvetica, Arial, &amp;quot;PingFang SC&amp;quot;, &amp;quot;Hiragino Sans GB&amp;quot;, &amp;quot;Microsoft YaHei UI&amp;quot;, &amp;quot;Microsoft YaHei&amp;quot;, &amp;quot;Source Han Sans CN&amp;quot;, sans-serif, &amp;quot;Apple Color Emoji&amp;quot;, &amp;quot;Segoe UI Emoji&amp;quot;; text-align: left; background-color: rgb(253, 253, 254);&quot;&gt;ARP（地址解析协议）&lt;/span&gt;&lt;/font&gt;" style="shape=process;whiteSpace=wrap;html=1;backgroundOutline=1;fillColor=#dae8fc;strokeColor=#6c8ebf;" vertex="1" parent="1">
          <mxGeometry y="440" width="80" height="80" as="geometry" />
        </mxCell>
        <mxCell id="6gzfc5hC1QTd9-dfOM9L-78" value="&lt;span style=&quot;color: rgb(5, 7, 59); font-family: -apple-system, BlinkMacSystemFont, &amp;quot;Segoe UI&amp;quot;, Roboto, Ubuntu, &amp;quot;Helvetica Neue&amp;quot;, Helvetica, Arial, &amp;quot;PingFang SC&amp;quot;, &amp;quot;Hiragino Sans GB&amp;quot;, &amp;quot;Microsoft YaHei UI&amp;quot;, &amp;quot;Microsoft YaHei&amp;quot;, &amp;quot;Source Han Sans CN&amp;quot;, sans-serif, &amp;quot;Apple Color Emoji&amp;quot;, &amp;quot;Segoe UI Emoji&amp;quot;; text-align: left; background-color: rgb(253, 253, 254);&quot;&gt;&lt;font style=&quot;font-size: 13px;&quot;&gt;PPP（点到点协议）&lt;/font&gt;&lt;/span&gt;" style="shape=process;whiteSpace=wrap;html=1;backgroundOutline=1;fillColor=#dae8fc;strokeColor=#6c8ebf;" vertex="1" parent="1">
          <mxGeometry y="680" width="80" height="80" as="geometry" />
        </mxCell>
        <mxCell id="6gzfc5hC1QTd9-dfOM9L-79" value="" style="endArrow=classic;html=1;rounded=0;exitX=1;exitY=0.5;exitDx=0;exitDy=0;entryX=0;entryY=0.625;entryDx=0;entryDy=0;entryPerimeter=0;" edge="1" parent="1" source="6gzfc5hC1QTd9-dfOM9L-63" target="6gzfc5hC1QTd9-dfOM9L-77">
          <mxGeometry width="50" height="50" relative="1" as="geometry">
            <mxPoint x="30" y="620" as="sourcePoint" />
            <mxPoint x="80" y="570" as="targetPoint" />
          </mxGeometry>
        </mxCell>
        <mxCell id="6gzfc5hC1QTd9-dfOM9L-80" value="" style="endArrow=classic;html=1;rounded=0;exitX=1.017;exitY=0.625;exitDx=0;exitDy=0;exitPerimeter=0;entryX=0;entryY=0.5;entryDx=0;entryDy=0;" edge="1" parent="1" source="6gzfc5hC1QTd9-dfOM9L-63" target="6gzfc5hC1QTd9-dfOM9L-78">
          <mxGeometry width="50" height="50" relative="1" as="geometry">
            <mxPoint x="30" y="720" as="sourcePoint" />
            <mxPoint x="80" y="670" as="targetPoint" />
          </mxGeometry>
        </mxCell>
        <mxCell id="6gzfc5hC1QTd9-dfOM9L-82" value="" style="edgeStyle=orthogonalEdgeStyle;rounded=0;orthogonalLoop=1;jettySize=auto;html=1;" edge="1" parent="1" source="6gzfc5hC1QTd9-dfOM9L-81" target="6gzfc5hC1QTd9-dfOM9L-63">
          <mxGeometry relative="1" as="geometry" />
        </mxCell>
        <mxCell id="6gzfc5hC1QTd9-dfOM9L-81" value="&lt;span style=&quot;color: rgb(5, 7, 59); font-family: -apple-system, BlinkMacSystemFont, &amp;quot;Segoe UI&amp;quot;, Roboto, Ubuntu, &amp;quot;Helvetica Neue&amp;quot;, Helvetica, Arial, &amp;quot;PingFang SC&amp;quot;, &amp;quot;Hiragino Sans GB&amp;quot;, &amp;quot;Microsoft YaHei UI&amp;quot;, &amp;quot;Microsoft YaHei&amp;quot;, &amp;quot;Source Han Sans CN&amp;quot;, sans-serif, &amp;quot;Apple Color Emoji&amp;quot;, &amp;quot;Segoe UI Emoji&amp;quot;; text-align: left; background-color: rgb(253, 253, 254);&quot;&gt;&lt;font&gt;定义了网络设备之间的逻辑连接，负责确定数据在网络中的传输路径，并将数据从一个节点传输到另一个节点&lt;/font&gt;&lt;/span&gt;" style="shape=document;whiteSpace=wrap;html=1;boundedLbl=1;" vertex="1" parent="1">
          <mxGeometry x="-240" y="400" width="160" height="120" as="geometry" />
        </mxCell>
        <mxCell id="6gzfc5hC1QTd9-dfOM9L-83" value="&lt;font&gt;&lt;span style=&quot;color: rgb(5, 7, 59); font-family: -apple-system, BlinkMacSystemFont, &amp;quot;Segoe UI&amp;quot;, Roboto, Ubuntu, &amp;quot;Helvetica Neue&amp;quot;, Helvetica, Arial, &amp;quot;PingFang SC&amp;quot;, &amp;quot;Hiragino Sans GB&amp;quot;, &amp;quot;Microsoft YaHei UI&amp;quot;, &amp;quot;Microsoft YaHei&amp;quot;, &amp;quot;Source Han Sans CN&amp;quot;, sans-serif, &amp;quot;Apple Color Emoji&amp;quot;, &amp;quot;Segoe UI Emoji&amp;quot;; text-align: left; background-color: rgb(253, 253, 254);&quot;&gt;IP（&lt;/span&gt;&lt;span style=&quot;color: rgb(5, 7, 59); font-family: -apple-system, BlinkMacSystemFont, &amp;quot;Segoe UI&amp;quot;, Roboto, Ubuntu, &amp;quot;Helvetica Neue&amp;quot;, Helvetica, Arial, &amp;quot;PingFang SC&amp;quot;, &amp;quot;Hiragino Sans GB&amp;quot;, &amp;quot;Microsoft YaHei UI&amp;quot;, &amp;quot;Microsoft YaHei&amp;quot;, &amp;quot;Source Han Sans CN&amp;quot;, sans-serif, &amp;quot;Apple Color Emoji&amp;quot;, &amp;quot;Segoe UI Emoji&amp;quot;; text-align: left; background-color: rgb(253, 253, 254);&quot;&gt;互联网协议&lt;/span&gt;&lt;span style=&quot;color: rgb(5, 7, 59); font-family: -apple-system, BlinkMacSystemFont, &amp;quot;Segoe UI&amp;quot;, Roboto, Ubuntu, &amp;quot;Helvetica Neue&amp;quot;, Helvetica, Arial, &amp;quot;PingFang SC&amp;quot;, &amp;quot;Hiragino Sans GB&amp;quot;, &amp;quot;Microsoft YaHei UI&amp;quot;, &amp;quot;Microsoft YaHei&amp;quot;, &amp;quot;Source Han Sans CN&amp;quot;, sans-serif, &amp;quot;Apple Color Emoji&amp;quot;, &amp;quot;Segoe UI Emoji&amp;quot;; text-align: left; background-color: rgb(253, 253, 254);&quot;&gt;）&lt;/span&gt;&lt;/font&gt;" style="shape=process;whiteSpace=wrap;html=1;backgroundOutline=1;fillColor=#dae8fc;strokeColor=#6c8ebf;" vertex="1" parent="1">
          <mxGeometry y="840" width="80" height="80" as="geometry" />
        </mxCell>
        <mxCell id="6gzfc5hC1QTd9-dfOM9L-86" value="" style="edgeStyle=orthogonalEdgeStyle;rounded=0;orthogonalLoop=1;jettySize=auto;html=1;" edge="1" parent="1" source="6gzfc5hC1QTd9-dfOM9L-85" target="6gzfc5hC1QTd9-dfOM9L-64">
          <mxGeometry relative="1" as="geometry" />
        </mxCell>
        <mxCell id="6gzfc5hC1QTd9-dfOM9L-85" value="&lt;span style=&quot;color: rgb(5, 7, 59); font-family: -apple-system, BlinkMacSystemFont, &amp;quot;Segoe UI&amp;quot;, Roboto, Ubuntu, &amp;quot;Helvetica Neue&amp;quot;, Helvetica, Arial, &amp;quot;PingFang SC&amp;quot;, &amp;quot;Hiragino Sans GB&amp;quot;, &amp;quot;Microsoft YaHei UI&amp;quot;, &amp;quot;Microsoft YaHei&amp;quot;, &amp;quot;Source Han Sans CN&amp;quot;, sans-serif, &amp;quot;Apple Color Emoji&amp;quot;, &amp;quot;Segoe UI Emoji&amp;quot;; text-align: left; background-color: rgb(253, 253, 254);&quot;&gt;&lt;font&gt;负责确定数据包在网络中的传输路径，包括路由协议、网络管理协议和网络拓扑协议&lt;/font&gt;&lt;/span&gt;" style="shape=document;whiteSpace=wrap;html=1;boundedLbl=1;" vertex="1" parent="1">
          <mxGeometry x="-200" y="720" width="120" height="80" as="geometry" />
        </mxCell>
        <mxCell id="6gzfc5hC1QTd9-dfOM9L-88" value="&lt;font&gt;&lt;span style=&quot;color: rgb(5, 7, 59); font-family: -apple-system, BlinkMacSystemFont, &amp;quot;Segoe UI&amp;quot;, Roboto, Ubuntu, &amp;quot;Helvetica Neue&amp;quot;, Helvetica, Arial, &amp;quot;PingFang SC&amp;quot;, &amp;quot;Hiragino Sans GB&amp;quot;, &amp;quot;Microsoft YaHei UI&amp;quot;, &amp;quot;Microsoft YaHei&amp;quot;, &amp;quot;Source Han Sans CN&amp;quot;, sans-serif, &amp;quot;Apple Color Emoji&amp;quot;, &amp;quot;Segoe UI Emoji&amp;quot;; text-align: left; background-color: rgb(253, 253, 254);&quot;&gt;RPC&lt;/span&gt;&lt;span style=&quot;color: rgb(5, 7, 59); font-family: -apple-system, BlinkMacSystemFont, &amp;quot;Segoe UI&amp;quot;, Roboto, Ubuntu, &amp;quot;Helvetica Neue&amp;quot;, Helvetica, Arial, &amp;quot;PingFang SC&amp;quot;, &amp;quot;Hiragino Sans GB&amp;quot;, &amp;quot;Microsoft YaHei UI&amp;quot;, &amp;quot;Microsoft YaHei&amp;quot;, &amp;quot;Source Han Sans CN&amp;quot;, sans-serif, &amp;quot;Apple Color Emoji&amp;quot;, &amp;quot;Segoe UI Emoji&amp;quot;; text-align: left; background-color: rgb(253, 253, 254);&quot;&gt;（远程过程调用协议）&lt;/span&gt;&lt;/font&gt;" style="shape=process;whiteSpace=wrap;html=1;backgroundOutline=1;fillColor=#dae8fc;strokeColor=#6c8ebf;" vertex="1" parent="1">
          <mxGeometry y="1320" width="80" height="80" as="geometry" />
        </mxCell>
        <mxCell id="6gzfc5hC1QTd9-dfOM9L-92" value="&lt;span style=&quot;color: rgb(5, 7, 59); font-family: -apple-system, BlinkMacSystemFont, &amp;quot;Segoe UI&amp;quot;, Roboto, Ubuntu, &amp;quot;Helvetica Neue&amp;quot;, Helvetica, Arial, &amp;quot;PingFang SC&amp;quot;, &amp;quot;Hiragino Sans GB&amp;quot;, &amp;quot;Microsoft YaHei UI&amp;quot;, &amp;quot;Microsoft YaHei&amp;quot;, &amp;quot;Source Han Sans CN&amp;quot;, sans-serif, &amp;quot;Apple Color Emoji&amp;quot;, &amp;quot;Segoe UI Emoji&amp;quot;; font-size: 15px; text-align: left; background-color: rgb(253, 253, 254);&quot;&gt;PNG&lt;/span&gt;" style="shape=process;whiteSpace=wrap;html=1;backgroundOutline=1;fillColor=#dae8fc;strokeColor=#6c8ebf;" vertex="1" parent="1">
          <mxGeometry y="1600" width="80" height="80" as="geometry" />
        </mxCell>
        <mxCell id="6gzfc5hC1QTd9-dfOM9L-94" value="" style="edgeStyle=orthogonalEdgeStyle;rounded=0;orthogonalLoop=1;jettySize=auto;html=1;" edge="1" parent="1" source="6gzfc5hC1QTd9-dfOM9L-95" target="6gzfc5hC1QTd9-dfOM9L-98">
          <mxGeometry relative="1" as="geometry" />
        </mxCell>
        <mxCell id="6gzfc5hC1QTd9-dfOM9L-95" value="TCP" style="shape=process;whiteSpace=wrap;html=1;backgroundOutline=1;fillColor=#dae8fc;strokeColor=#6c8ebf;" vertex="1" parent="1">
          <mxGeometry x="800" y="720" width="80" height="80" as="geometry" />
        </mxCell>
        <mxCell id="6gzfc5hC1QTd9-dfOM9L-96" value="" style="edgeStyle=orthogonalEdgeStyle;rounded=0;orthogonalLoop=1;jettySize=auto;html=1;" edge="1" parent="1" source="6gzfc5hC1QTd9-dfOM9L-97" target="6gzfc5hC1QTd9-dfOM9L-99">
          <mxGeometry relative="1" as="geometry" />
        </mxCell>
        <mxCell id="6gzfc5hC1QTd9-dfOM9L-97" value="UDP" style="shape=process;whiteSpace=wrap;html=1;backgroundOutline=1;fillColor=#dae8fc;strokeColor=#6c8ebf;" vertex="1" parent="1">
          <mxGeometry x="800" y="840" width="80" height="80" as="geometry" />
        </mxCell>
        <mxCell id="6gzfc5hC1QTd9-dfOM9L-98" value="相对UDP协议更安全" style="shape=document;whiteSpace=wrap;html=1;boundedLbl=1;" vertex="1" parent="1">
          <mxGeometry x="960" y="720" width="120" height="80" as="geometry" />
        </mxCell>
        <mxCell id="6gzfc5hC1QTd9-dfOM9L-99" value="相对TCP协议更加快" style="shape=document;whiteSpace=wrap;html=1;boundedLbl=1;" vertex="1" parent="1">
          <mxGeometry x="960" y="840" width="120" height="80" as="geometry" />
        </mxCell>
        <mxCell id="6gzfc5hC1QTd9-dfOM9L-100" value="" style="edgeStyle=orthogonalEdgeStyle;rounded=0;orthogonalLoop=1;jettySize=auto;html=1;" edge="1" parent="1" source="6gzfc5hC1QTd9-dfOM9L-101" target="6gzfc5hC1QTd9-dfOM9L-104">
          <mxGeometry relative="1" as="geometry" />
        </mxCell>
        <mxCell id="6gzfc5hC1QTd9-dfOM9L-101" value="TCP" style="shape=process;whiteSpace=wrap;html=1;backgroundOutline=1;fillColor=#dae8fc;strokeColor=#6c8ebf;" vertex="1" parent="1">
          <mxGeometry y="1020" width="80" height="80" as="geometry" />
        </mxCell>
        <mxCell id="6gzfc5hC1QTd9-dfOM9L-102" value="" style="edgeStyle=orthogonalEdgeStyle;rounded=0;orthogonalLoop=1;jettySize=auto;html=1;" edge="1" parent="1" source="6gzfc5hC1QTd9-dfOM9L-103" target="6gzfc5hC1QTd9-dfOM9L-105">
          <mxGeometry relative="1" as="geometry" />
        </mxCell>
        <mxCell id="6gzfc5hC1QTd9-dfOM9L-103" value="UDP" style="shape=process;whiteSpace=wrap;html=1;backgroundOutline=1;fillColor=#dae8fc;strokeColor=#6c8ebf;" vertex="1" parent="1">
          <mxGeometry y="1140" width="80" height="80" as="geometry" />
        </mxCell>
        <mxCell id="6gzfc5hC1QTd9-dfOM9L-104" value="相对UDP协议更安全" style="shape=document;whiteSpace=wrap;html=1;boundedLbl=1;" vertex="1" parent="1">
          <mxGeometry x="160" y="1020" width="120" height="80" as="geometry" />
        </mxCell>
        <mxCell id="6gzfc5hC1QTd9-dfOM9L-105" value="相对TCP协议更加快" style="shape=document;whiteSpace=wrap;html=1;boundedLbl=1;" vertex="1" parent="1">
          <mxGeometry x="160" y="1140" width="120" height="80" as="geometry" />
        </mxCell>
        <mxCell id="6gzfc5hC1QTd9-dfOM9L-106" value="" style="edgeStyle=orthogonalEdgeStyle;rounded=0;orthogonalLoop=1;jettySize=auto;html=1;" edge="1" parent="1" source="6gzfc5hC1QTd9-dfOM9L-107" target="6gzfc5hC1QTd9-dfOM9L-110">
          <mxGeometry relative="1" as="geometry" />
        </mxCell>
        <mxCell id="6gzfc5hC1QTd9-dfOM9L-107" value="TCP" style="shape=process;whiteSpace=wrap;html=1;backgroundOutline=1;fillColor=#dae8fc;strokeColor=#6c8ebf;" vertex="1" parent="1">
          <mxGeometry y="1020" width="80" height="80" as="geometry" />
        </mxCell>
        <mxCell id="6gzfc5hC1QTd9-dfOM9L-108" value="" style="edgeStyle=orthogonalEdgeStyle;rounded=0;orthogonalLoop=1;jettySize=auto;html=1;" edge="1" parent="1" source="6gzfc5hC1QTd9-dfOM9L-109" target="6gzfc5hC1QTd9-dfOM9L-111">
          <mxGeometry relative="1" as="geometry" />
        </mxCell>
        <mxCell id="6gzfc5hC1QTd9-dfOM9L-109" value="UDP" style="shape=process;whiteSpace=wrap;html=1;backgroundOutline=1;fillColor=#dae8fc;strokeColor=#6c8ebf;" vertex="1" parent="1">
          <mxGeometry y="1140" width="80" height="80" as="geometry" />
        </mxCell>
        <mxCell id="6gzfc5hC1QTd9-dfOM9L-110" value="相对UDP协议更安全" style="shape=document;whiteSpace=wrap;html=1;boundedLbl=1;" vertex="1" parent="1">
          <mxGeometry x="160" y="1020" width="120" height="80" as="geometry" />
        </mxCell>
        <mxCell id="6gzfc5hC1QTd9-dfOM9L-111" value="相对TCP协议更加快" style="shape=document;whiteSpace=wrap;html=1;boundedLbl=1;" vertex="1" parent="1">
          <mxGeometry x="160" y="1140" width="120" height="80" as="geometry" />
        </mxCell>
        <mxCell id="6gzfc5hC1QTd9-dfOM9L-112" value="" style="endArrow=classic;html=1;rounded=0;exitX=1;exitY=0.5;exitDx=0;exitDy=0;" edge="1" parent="1" source="6gzfc5hC1QTd9-dfOM9L-65">
          <mxGeometry width="50" height="50" relative="1" as="geometry">
            <mxPoint x="-40" y="1220" as="sourcePoint" />
            <mxPoint x="10" y="1170" as="targetPoint" />
          </mxGeometry>
        </mxCell>
        <mxCell id="6gzfc5hC1QTd9-dfOM9L-113" value="" style="endArrow=classic;html=1;rounded=0;entryX=-0.05;entryY=0.425;entryDx=0;entryDy=0;entryPerimeter=0;exitX=1;exitY=0.5;exitDx=0;exitDy=0;" edge="1" parent="1" source="6gzfc5hC1QTd9-dfOM9L-65" target="6gzfc5hC1QTd9-dfOM9L-107">
          <mxGeometry width="50" height="50" relative="1" as="geometry">
            <mxPoint x="-40" y="1220" as="sourcePoint" />
            <mxPoint x="10" y="1170" as="targetPoint" />
          </mxGeometry>
        </mxCell>
        <mxCell id="6gzfc5hC1QTd9-dfOM9L-115" value="" style="edgeStyle=orthogonalEdgeStyle;rounded=0;orthogonalLoop=1;jettySize=auto;html=1;" edge="1" parent="1" source="6gzfc5hC1QTd9-dfOM9L-114" target="6gzfc5hC1QTd9-dfOM9L-65">
          <mxGeometry relative="1" as="geometry" />
        </mxCell>
        <mxCell id="6gzfc5hC1QTd9-dfOM9L-114" value="&lt;span style=&quot;color: rgb(5, 7, 59); font-family: -apple-system, BlinkMacSystemFont, &amp;quot;Segoe UI&amp;quot;, Roboto, Ubuntu, &amp;quot;Helvetica Neue&amp;quot;, Helvetica, Arial, &amp;quot;PingFang SC&amp;quot;, &amp;quot;Hiragino Sans GB&amp;quot;, &amp;quot;Microsoft YaHei UI&amp;quot;, &amp;quot;Microsoft YaHei&amp;quot;, &amp;quot;Source Han Sans CN&amp;quot;, sans-serif, &amp;quot;Apple Color Emoji&amp;quot;, &amp;quot;Segoe UI Emoji&amp;quot;; text-align: left; background-color: rgb(253, 253, 254);&quot;&gt;&lt;font style=&quot;font-size: 13px;&quot;&gt;负责在源主机和目标主机的应用程序之间提供端到端的通信&lt;/font&gt;&lt;/span&gt;" style="shape=document;whiteSpace=wrap;html=1;boundedLbl=1;" vertex="1" parent="1">
          <mxGeometry x="-200" y="960" width="120" height="80" as="geometry" />
        </mxCell>
        <mxCell id="6gzfc5hC1QTd9-dfOM9L-117" value="" style="edgeStyle=orthogonalEdgeStyle;rounded=0;orthogonalLoop=1;jettySize=auto;html=1;" edge="1" parent="1" source="6gzfc5hC1QTd9-dfOM9L-116" target="6gzfc5hC1QTd9-dfOM9L-66">
          <mxGeometry relative="1" as="geometry" />
        </mxCell>
        <mxCell id="6gzfc5hC1QTd9-dfOM9L-116" value="&lt;span style=&quot;color: rgb(5, 7, 59); font-family: -apple-system, BlinkMacSystemFont, &amp;quot;Segoe UI&amp;quot;, Roboto, Ubuntu, &amp;quot;Helvetica Neue&amp;quot;, Helvetica, Arial, &amp;quot;PingFang SC&amp;quot;, &amp;quot;Hiragino Sans GB&amp;quot;, &amp;quot;Microsoft YaHei UI&amp;quot;, &amp;quot;Microsoft YaHei&amp;quot;, &amp;quot;Source Han Sans CN&amp;quot;, sans-serif, &amp;quot;Apple Color Emoji&amp;quot;, &amp;quot;Segoe UI Emoji&amp;quot;; text-align: left; background-color: rgb(253, 253, 254);&quot;&gt;&lt;font&gt;负责管理网络中的会话，包括会话建立、会话维护和会话终止等功能&lt;/font&gt;&lt;/span&gt;" style="shape=document;whiteSpace=wrap;html=1;boundedLbl=1;" vertex="1" parent="1">
          <mxGeometry x="-200" y="1200" width="120" height="80" as="geometry" />
        </mxCell>
        <mxCell id="6gzfc5hC1QTd9-dfOM9L-118" value="&lt;span style=&quot;color: rgb(5, 7, 59); font-family: -apple-system, BlinkMacSystemFont, &amp;quot;Segoe UI&amp;quot;, Roboto, Ubuntu, &amp;quot;Helvetica Neue&amp;quot;, Helvetica, Arial, &amp;quot;PingFang SC&amp;quot;, &amp;quot;Hiragino Sans GB&amp;quot;, &amp;quot;Microsoft YaHei UI&amp;quot;, &amp;quot;Microsoft YaHei&amp;quot;, &amp;quot;Source Han Sans CN&amp;quot;, sans-serif, &amp;quot;Apple Color Emoji&amp;quot;, &amp;quot;Segoe UI Emoji&amp;quot;; font-size: 15px; text-align: left; background-color: rgb(253, 253, 254);&quot;&gt;JPEG&lt;/span&gt;" style="shape=process;whiteSpace=wrap;html=1;backgroundOutline=1;fillColor=#dae8fc;strokeColor=#6c8ebf;" vertex="1" parent="1">
          <mxGeometry y="1480" width="80" height="80" as="geometry" />
        </mxCell>
        <mxCell id="6gzfc5hC1QTd9-dfOM9L-119" value="&lt;span style=&quot;color: rgb(5, 7, 59); font-family: -apple-system, BlinkMacSystemFont, &amp;quot;Segoe UI&amp;quot;, Roboto, Ubuntu, &amp;quot;Helvetica Neue&amp;quot;, Helvetica, Arial, &amp;quot;PingFang SC&amp;quot;, &amp;quot;Hiragino Sans GB&amp;quot;, &amp;quot;Microsoft YaHei UI&amp;quot;, &amp;quot;Microsoft YaHei&amp;quot;, &amp;quot;Source Han Sans CN&amp;quot;, sans-serif, &amp;quot;Apple Color Emoji&amp;quot;, &amp;quot;Segoe UI Emoji&amp;quot;; font-size: 15px; text-align: left; background-color: rgb(253, 253, 254);&quot;&gt;ASCII&lt;/span&gt;" style="shape=process;whiteSpace=wrap;html=1;backgroundOutline=1;fillColor=#dae8fc;strokeColor=#6c8ebf;" vertex="1" parent="1">
          <mxGeometry y="1720" width="80" height="80" as="geometry" />
        </mxCell>
        <mxCell id="6gzfc5hC1QTd9-dfOM9L-120" value="" style="endArrow=classic;html=1;rounded=0;entryX=0;entryY=0.5;entryDx=0;entryDy=0;exitX=1;exitY=0.5;exitDx=0;exitDy=0;" edge="1" parent="1" source="6gzfc5hC1QTd9-dfOM9L-67" target="6gzfc5hC1QTd9-dfOM9L-118">
          <mxGeometry width="50" height="50" relative="1" as="geometry">
            <mxPoint x="-260" y="1720" as="sourcePoint" />
            <mxPoint x="-210" y="1670" as="targetPoint" />
          </mxGeometry>
        </mxCell>
        <mxCell id="6gzfc5hC1QTd9-dfOM9L-122" value="" style="endArrow=classic;html=1;rounded=0;entryX=0;entryY=0.5;entryDx=0;entryDy=0;exitX=1;exitY=0.5;exitDx=0;exitDy=0;" edge="1" parent="1" source="6gzfc5hC1QTd9-dfOM9L-67" target="6gzfc5hC1QTd9-dfOM9L-119">
          <mxGeometry width="50" height="50" relative="1" as="geometry">
            <mxPoint x="-260" y="1720" as="sourcePoint" />
            <mxPoint x="-210" y="1670" as="targetPoint" />
          </mxGeometry>
        </mxCell>
        <mxCell id="6gzfc5hC1QTd9-dfOM9L-124" value="" style="edgeStyle=orthogonalEdgeStyle;rounded=0;orthogonalLoop=1;jettySize=auto;html=1;" edge="1" parent="1" source="6gzfc5hC1QTd9-dfOM9L-123" target="6gzfc5hC1QTd9-dfOM9L-67">
          <mxGeometry relative="1" as="geometry" />
        </mxCell>
        <mxCell id="6gzfc5hC1QTd9-dfOM9L-123" value="&lt;span style=&quot;color: rgb(5, 7, 59); font-family: -apple-system, BlinkMacSystemFont, &amp;quot;Segoe UI&amp;quot;, Roboto, Ubuntu, &amp;quot;Helvetica Neue&amp;quot;, Helvetica, Arial, &amp;quot;PingFang SC&amp;quot;, &amp;quot;Hiragino Sans GB&amp;quot;, &amp;quot;Microsoft YaHei UI&amp;quot;, &amp;quot;Microsoft YaHei&amp;quot;, &amp;quot;Source Han Sans CN&amp;quot;, sans-serif, &amp;quot;Apple Color Emoji&amp;quot;, &amp;quot;Segoe UI Emoji&amp;quot;; text-align: left; background-color: rgb(253, 253, 254);&quot;&gt;&lt;font&gt;负责数据的编码、解码和转换，确保不同系统间的数据能够正确解释和交换&lt;/font&gt;&lt;/span&gt;" style="shape=document;whiteSpace=wrap;html=1;boundedLbl=1;" vertex="1" parent="1">
          <mxGeometry x="-200" y="1480" width="120" height="80" as="geometry" />
        </mxCell>
        <mxCell id="6gzfc5hC1QTd9-dfOM9L-126" value="应用层" style="rounded=1;whiteSpace=wrap;html=1;fillColor=#fff2cc;strokeColor=#d6b656;" vertex="1" parent="1">
          <mxGeometry x="-200" y="2120" width="120" height="80" as="geometry" />
        </mxCell>
        <mxCell id="6gzfc5hC1QTd9-dfOM9L-127" style="edgeStyle=orthogonalEdgeStyle;rounded=0;orthogonalLoop=1;jettySize=auto;html=1;entryX=0;entryY=0.5;entryDx=0;entryDy=0;" edge="1" parent="1" source="6gzfc5hC1QTd9-dfOM9L-128" target="6gzfc5hC1QTd9-dfOM9L-142">
          <mxGeometry relative="1" as="geometry" />
        </mxCell>
        <mxCell id="6gzfc5hC1QTd9-dfOM9L-128" value="Http协议" style="shape=process;whiteSpace=wrap;html=1;backgroundOutline=1;fillColor=#dae8fc;strokeColor=#6c8ebf;" vertex="1" parent="1">
          <mxGeometry y="1840" width="80" height="80" as="geometry" />
        </mxCell>
        <mxCell id="6gzfc5hC1QTd9-dfOM9L-129" value="" style="edgeStyle=orthogonalEdgeStyle;rounded=0;orthogonalLoop=1;jettySize=auto;html=1;" edge="1" parent="1" source="6gzfc5hC1QTd9-dfOM9L-130" target="6gzfc5hC1QTd9-dfOM9L-143">
          <mxGeometry relative="1" as="geometry" />
        </mxCell>
        <mxCell id="6gzfc5hC1QTd9-dfOM9L-130" value="Https协议" style="shape=process;whiteSpace=wrap;html=1;backgroundOutline=1;fillColor=#dae8fc;strokeColor=#6c8ebf;" vertex="1" parent="1">
          <mxGeometry y="1960" width="80" height="80" as="geometry" />
        </mxCell>
        <mxCell id="6gzfc5hC1QTd9-dfOM9L-131" value="" style="edgeStyle=orthogonalEdgeStyle;rounded=0;orthogonalLoop=1;jettySize=auto;html=1;" edge="1" parent="1" source="6gzfc5hC1QTd9-dfOM9L-132" target="6gzfc5hC1QTd9-dfOM9L-144">
          <mxGeometry relative="1" as="geometry" />
        </mxCell>
        <mxCell id="6gzfc5hC1QTd9-dfOM9L-132" value="FTP协议" style="shape=process;whiteSpace=wrap;html=1;backgroundOutline=1;fillColor=#dae8fc;strokeColor=#6c8ebf;" vertex="1" parent="1">
          <mxGeometry y="2080" width="80" height="80" as="geometry" />
        </mxCell>
        <mxCell id="6gzfc5hC1QTd9-dfOM9L-133" value="" style="edgeStyle=orthogonalEdgeStyle;rounded=0;orthogonalLoop=1;jettySize=auto;html=1;" edge="1" parent="1" source="6gzfc5hC1QTd9-dfOM9L-134" target="6gzfc5hC1QTd9-dfOM9L-145">
          <mxGeometry relative="1" as="geometry" />
        </mxCell>
        <mxCell id="6gzfc5hC1QTd9-dfOM9L-134" value="SMTP协议" style="shape=process;whiteSpace=wrap;html=1;backgroundOutline=1;fillColor=#dae8fc;strokeColor=#6c8ebf;" vertex="1" parent="1">
          <mxGeometry y="2200" width="80" height="80" as="geometry" />
        </mxCell>
        <mxCell id="6gzfc5hC1QTd9-dfOM9L-135" value="" style="edgeStyle=orthogonalEdgeStyle;rounded=0;orthogonalLoop=1;jettySize=auto;html=1;" edge="1" parent="1">
          <mxGeometry relative="1" as="geometry">
            <mxPoint x="80" y="2360" as="sourcePoint" />
            <mxPoint x="160" y="2360" as="targetPoint" />
          </mxGeometry>
        </mxCell>
        <mxCell id="6gzfc5hC1QTd9-dfOM9L-136" value="DNS协议" style="shape=process;whiteSpace=wrap;html=1;backgroundOutline=1;fillColor=#dae8fc;strokeColor=#6c8ebf;" vertex="1" parent="1">
          <mxGeometry y="2320" width="80" height="80" as="geometry" />
        </mxCell>
        <mxCell id="6gzfc5hC1QTd9-dfOM9L-137" value="" style="endArrow=classic;html=1;rounded=0;entryX=0;entryY=0.5;entryDx=0;entryDy=0;exitX=1;exitY=0;exitDx=0;exitDy=0;" edge="1" parent="1" source="6gzfc5hC1QTd9-dfOM9L-126" target="6gzfc5hC1QTd9-dfOM9L-128">
          <mxGeometry width="50" height="50" relative="1" as="geometry">
            <mxPoint x="-110" y="2080" as="sourcePoint" />
            <mxPoint x="-60" y="2030" as="targetPoint" />
          </mxGeometry>
        </mxCell>
        <mxCell id="6gzfc5hC1QTd9-dfOM9L-138" value="" style="endArrow=classic;html=1;rounded=0;entryX=0;entryY=0.5;entryDx=0;entryDy=0;exitX=1;exitY=0;exitDx=0;exitDy=0;" edge="1" parent="1" source="6gzfc5hC1QTd9-dfOM9L-126" target="6gzfc5hC1QTd9-dfOM9L-130">
          <mxGeometry width="50" height="50" relative="1" as="geometry">
            <mxPoint x="-110" y="2080" as="sourcePoint" />
            <mxPoint x="-60" y="2030" as="targetPoint" />
          </mxGeometry>
        </mxCell>
        <mxCell id="6gzfc5hC1QTd9-dfOM9L-139" value="" style="endArrow=classic;html=1;rounded=0;exitX=1;exitY=0.5;exitDx=0;exitDy=0;entryX=0;entryY=0.5;entryDx=0;entryDy=0;" edge="1" parent="1" source="6gzfc5hC1QTd9-dfOM9L-126" target="6gzfc5hC1QTd9-dfOM9L-132">
          <mxGeometry width="50" height="50" relative="1" as="geometry">
            <mxPoint x="-110" y="2080" as="sourcePoint" />
            <mxPoint x="-60" y="2030" as="targetPoint" />
          </mxGeometry>
        </mxCell>
        <mxCell id="6gzfc5hC1QTd9-dfOM9L-140" value="" style="endArrow=classic;html=1;rounded=0;entryX=0;entryY=0.625;entryDx=0;entryDy=0;entryPerimeter=0;exitX=1;exitY=1;exitDx=0;exitDy=0;" edge="1" parent="1" source="6gzfc5hC1QTd9-dfOM9L-126" target="6gzfc5hC1QTd9-dfOM9L-134">
          <mxGeometry width="50" height="50" relative="1" as="geometry">
            <mxPoint x="-110" y="2180" as="sourcePoint" />
            <mxPoint x="-60" y="2130" as="targetPoint" />
          </mxGeometry>
        </mxCell>
        <mxCell id="6gzfc5hC1QTd9-dfOM9L-141" value="" style="endArrow=classic;html=1;rounded=0;entryX=-0.037;entryY=0.6;entryDx=0;entryDy=0;entryPerimeter=0;" edge="1" parent="1">
          <mxGeometry width="50" height="50" relative="1" as="geometry">
            <mxPoint x="-80" y="2160" as="sourcePoint" />
            <mxPoint x="-2.9600000000000364" y="2368" as="targetPoint" />
          </mxGeometry>
        </mxCell>
        <mxCell id="6gzfc5hC1QTd9-dfOM9L-142" value="相对Https不安全" style="shape=document;whiteSpace=wrap;html=1;boundedLbl=1;" vertex="1" parent="1">
          <mxGeometry x="160" y="1840" width="120" height="80" as="geometry" />
        </mxCell>
        <mxCell id="6gzfc5hC1QTd9-dfOM9L-143" value="相对Http更安全" style="shape=document;whiteSpace=wrap;html=1;boundedLbl=1;" vertex="1" parent="1">
          <mxGeometry x="160" y="1960" width="120" height="80" as="geometry" />
        </mxCell>
        <mxCell id="6gzfc5hC1QTd9-dfOM9L-144" value="文件传输" style="shape=document;whiteSpace=wrap;html=1;boundedLbl=1;" vertex="1" parent="1">
          <mxGeometry x="160" y="2080" width="120" height="80" as="geometry" />
        </mxCell>
        <mxCell id="6gzfc5hC1QTd9-dfOM9L-145" value="邮件发送" style="shape=document;whiteSpace=wrap;html=1;boundedLbl=1;" vertex="1" parent="1">
          <mxGeometry x="160" y="2200" width="120" height="80" as="geometry" />
        </mxCell>
        <mxCell id="6gzfc5hC1QTd9-dfOM9L-146" value="域名解析" style="shape=document;whiteSpace=wrap;html=1;boundedLbl=1;" vertex="1" parent="1">
          <mxGeometry x="160" y="2320" width="120" height="80" as="geometry" />
        </mxCell>
        <mxCell id="6gzfc5hC1QTd9-dfOM9L-147" value="" style="edgeStyle=orthogonalEdgeStyle;rounded=0;orthogonalLoop=1;jettySize=auto;html=1;" edge="1" parent="1" source="6gzfc5hC1QTd9-dfOM9L-148" target="6gzfc5hC1QTd9-dfOM9L-126">
          <mxGeometry relative="1" as="geometry" />
        </mxCell>
        <mxCell id="6gzfc5hC1QTd9-dfOM9L-148" value="&lt;span style=&quot;color: rgb(5, 7, 59); font-family: -apple-system, BlinkMacSystemFont, &amp;quot;Segoe UI&amp;quot;, Roboto, Ubuntu, &amp;quot;Helvetica Neue&amp;quot;, Helvetica, Arial, &amp;quot;PingFang SC&amp;quot;, &amp;quot;Hiragino Sans GB&amp;quot;, &amp;quot;Microsoft YaHei UI&amp;quot;, &amp;quot;Microsoft YaHei&amp;quot;, &amp;quot;Source Han Sans CN&amp;quot;, sans-serif, &amp;quot;Apple Color Emoji&amp;quot;, &amp;quot;Segoe UI Emoji&amp;quot;; text-align: left; background-color: rgb(253, 253, 254);&quot;&gt;&lt;font style=&quot;font-size: 13px;&quot;&gt;这是最接近用户的层次，为应用程序提供网络服务&lt;/font&gt;&lt;/span&gt;" style="shape=document;whiteSpace=wrap;html=1;boundedLbl=1;" vertex="1" parent="1">
          <mxGeometry x="-200" y="1960" width="120" height="80" as="geometry" />
        </mxCell>
      </root>
    </mxGraphModel>
  </diagram>
</mxfile>
